<?xml version="1.0" encoding="utf-8"?>
<!-- Generator: Adobe Illustrator 26.3.1, SVG Export Plug-In . SVG Version: 6.00 Build 0)  -->
<svg version="1.1" id="图层_1" xmlns="http://www.w3.org/2000/svg" xmlns:xlink="http://www.w3.org/1999/xlink" x="0px" y="0px"
	 viewBox="0 0 294.8 294.8" style="enable-background:new 0 0 294.8 294.8;" xml:space="preserve">
<style type="text/css">
	.st0{fill:#2563EB;}
</style>
<g>
	<g>
		<path class="st0" d="M192.43,213.61H158l-0.38-70.19l-34.05,57.13h-16.65l-33.86-55.24v68.29H38.44V81.19h30.83l46.54,76.43
			l45.4-76.43h30.84L192.43,213.61z"/>
		<path class="st0" d="M218.91,213.61V81.19h37.46v132.43H218.91z"/>
	</g>
	<g>
		<path class="st0" d="M234.92,289.13H59.89c-29.9,0-54.22-24.32-54.22-54.22V59.89c0-29.89,24.32-54.21,54.22-54.21h175.03
			c29.9,0,54.22,24.32,54.22,54.21v175.03C289.13,264.81,264.81,289.13,234.92,289.13z M59.89,12.16
			c-26.31,0-47.73,21.41-47.73,47.72v175.03c0,26.31,21.41,47.73,47.73,47.73h175.03c26.31,0,47.73-21.41,47.73-47.73V59.89
			c0-26.31-21.41-47.72-47.73-47.72H59.89z"/>
	</g>
</g>
</svg>
